<svg xmlns="http://www.w3.org/2000/svg" viewBox="0 0 979.27 993.62"><defs><style>.cls-1{fill:#0f82f4;}.cls-2{fill:#fff;}</style></defs><g id="Capa_2" data-name="Capa 2"><g id="Capa_1-2" data-name="Capa 1"><circle class="cls-1" cx="492.4" cy="498.11" r="485.69"/><path class="cls-2" d="M979.24,498.11c1.45,194.28-115.67,383.47-297,458.23C277.76,1120.79-122.26,711.47,35,308.67,136.41,55.1,431.06-68.78,682.57,39c180.79,75.48,298.59,264.82,296.67,459.1Zm-2.3,0c1-193.77-124.51-367.65-302.91-438.52C320.79-80.6-44.94,217.81,20.74,591.94c73.84,380.57,535.13,505.21,809.91,244.42,92-86.74,147.18-211.48,146.29-338.25Z"/><path class="cls-2" d="M349.42,638.29q5.71,7.59,11.8,14.91c4,4.87,8.5,10.72,7.06,16.9-.63,2.66-2.3,4.94-4,7.09a136,136,0,0,1-76.48,48c-15.11,3.36-32.55,3.54-44.26-6.6-1.11-1-2.24-2.2-2.13-3.67s1.29-2.46,2.4-3.33c8.77-6.86,18.92-13.38,22.6-23.88a4.56,4.56,0,0,0,.32-2.64c-.57-2.16-3.45-2.52-5.69-2.4-27.48,1.57-54.26,10.38-81.78,10.84-3.81.06-8.19-.32-10.42-3.4-2.53-3.51-.84-8.39,1-12.29a209.72,209.72,0,0,1,76.65-85.68c2-1.27,4.21-4.14,2.3-5.55a3.63,3.63,0,0,0-1.74-.54,70.36,70.36,0,0,0-35,4.72c-1.57.64-3.28,1.35-4.91.88a5.45,5.45,0,0,1-3.21-3.23c-2.44-5.6.42-12,3.6-17.21A131.1,131.1,0,0,1,240,535.25a123.62,123.62,0,0,1,21.61-13.18c6-2.84,16.52-8.79,23.34-7.46,6.62,1.29,7.46,10.91,9,16C305.82,569.61,325,605.83,349.42,638.29Z"/><path class="cls-2" d="M424.37,629.38c.19.27.39.53.58.79,5.2,7,6.74,14.45,0,21.08-4.23,4.17-11,8.1-17,8.69-8.34.82-16.28-4-22.23-9.88-16.57-16.44-30.57-36.12-42.81-55.92-11.34-18.35-23.52-37.75-29.87-58.5-9-29.36-.25-61.6,25.44-79.84,3-2.13,6.53-3.18,9.63-.49,2.15,1.86,3.21,4.67,4,7.41,2.86,10,3.12,20.44,5.7,30.47s5.73,20.06,9.14,29.88a372.94,372.94,0,0,0,26.46,59.11A440.61,440.61,0,0,0,424.37,629.38Z"/><path class="cls-2" d="M472.56,509.5a37.36,37.36,0,0,0-3.91,2.2c-10.12,6.44-20.32,12.69-30.17,19.57S418,544.86,410.09,554c-3.88,4.52-13.23,18.91-.59,18.53,5.7-.18,9-3.55,14.89-1.28,4.9,1.89,8.75,6,12.61,9.41a74.09,74.09,0,0,1,15.85,18.81c4.17,7.41,6.17,16.48,3.69,24.8-1.1,3.68-7.52,14-1.57,16.39,1.89.78,4,.4,6,0,10.78-2.07,21.41-4.23,31.94-7.36,24.28-7.22,60.29-16.74,67.82-44.82a17.07,17.07,0,0,0,.16-9.32c-3.77-12.24-24.54-16.94-35.26-20.89-1.93-.71-27.78-10-28.08-8,.86-6,1.58-12.51,1-18.68-.71-8.91-4-22.14-14.15-24.22C480.4,506.62,476.31,507.69,472.56,509.5Zm-1.21,47.71c-.1.31-.2.62-.32.92a21.86,21.86,0,0,1-6.49,9.27,4.08,4.08,0,0,1-2,1c-3.25.36-12.41-10.22-11.67-13.32a5.77,5.77,0,0,1,1.44-2.37c2.2-2.53,13.81-14,17.78-10.51a3.61,3.61,0,0,1,.85,1.34A19.5,19.5,0,0,1,471.35,557.21Zm38.71,35.28c2.83,7.54-14.57,15.79-20,16.62a5.39,5.39,0,0,1-2.85-.13,6.1,6.1,0,0,1-2.52-2.49c-2-3-5.06-6.11-6.16-9.59s1.79-5.33,4.8-6.22c6-1.78,22-6.18,26.28.88A5.73,5.73,0,0,1,510.06,592.49Z"/><path class="cls-2" d="M564.64,487.2c-.57,2-1.43,3.71-2.92,4.43a6.33,6.33,0,0,1-3,.44c-7.08-.25-19.56-6.69-26.12-8.78-12.57-4-18.39.85-29.66,7.45a18.54,18.54,0,0,0-5.16,4.1c-8.78,10.84,11.26,17.28,18.5,19,15.18,3.59,32,3.12,44.84,13.31,10.17,8.07,25,28,22,41.71-.79,3.64-4.75,6.58-6.63,9.8s-3.64,6.69-3.67,10.41,2.19,7.72,5.83,8.53c2.19.49,4.45-.21,6.58-.9,18.11-5.9,36.69-12.05,51.33-24.22,4.79-4,9.45-10,7.33-15.91-1.11-3.09-3.86-5.23-6.46-7.25-6.68-5.2-13.14-10.68-19.52-16.25-8.65-7.54-19.73-13.73-20.5-26.39-.32-5.38.85-10.72,2.06-16,3.58-15.42,5.05-32.47-5.07-45.92-3.37-4.49-11.21-.7-16.33,2.72-4.67,3.11-5.54,5.39-7,8.56C567.47,464,568,471.52,566,480,565.6,481.73,565.37,484.66,564.64,487.2Z"/><path class="cls-2" d="M680,381a26.2,26.2,0,0,1,3.24-1.58c3.7-1.5,8-2,11.65-.37,5.38,2.32,8.07,8.27,10.08,13.78,3.3,9,5.93,19.49,1.12,27.79-3.25,5.61-9.23,8.93-14.61,12.57-17.63,11.93-10.84,27.51-1.75,43,7.37,12.52,23.6,29.76,13.33,44.71-8.37,12.19-21.61,23.69-36.85,25.36a9.22,9.22,0,0,1-5.65-.76c-2.52-1.47-3.41-4.75-3.18-7.66.3-3.89,2.09-7.62,2.18-11.52.11-5.1-1.26-10.7-2-15.73-1.85-12-4.5-23.92-7.24-35.77-1.46-6.31-5.38-19.73-14.45-12.62-5.47,4.3-7.5,13.33-16.42,10.36-4.59-1.53-7.82-5.61-10.33-9.74a70.78,70.78,0,0,1-6.28-13.18,13.14,13.14,0,0,1-1-6.77c.66-3.5,3.71-6,6.55-8.12l64.79-49A65.73,65.73,0,0,1,680,381Z"/><path class="cls-2" d="M715.53,364.27c-4.86,5.11,0,15.26,1.28,21,3.06,13.78,5.49,27.83,5.77,42,.32,16.48-4.21,32.69-3.17,49.19a14.63,14.63,0,0,0,1,5c12,27.59,67.35-46.5,72-53.71A51.7,51.7,0,0,0,801,397.17a29.8,29.8,0,0,0-1.55-9.38,6.64,6.64,0,0,0-3-3.92c-2.63-1.27-5.75.7-7.41,3.1-5.5,8-10.07,16.48-16.14,24.12-4,5-12.29,17.59-19.57,17-4.54-.4-5.58-5.81-5.41-9.51.3-6.61,5-10.64,10.73-13,11.1-4.58,17.11-9.47,15.51-22.41a8.13,8.13,0,0,0-1.81-4.87,6.66,6.66,0,0,0-5.13-1.59c-5,.24-7.92,3.41-11.68,6.19-2.21,1.64-7.23,5.14-7.41,0a6,6,0,0,1,1.92-4c6-6.76,15-10.59,22.68-15.19A160.34,160.34,0,0,0,795,347.93c13.19-11.37,23.48-26.58,22.15-44.69a3.47,3.47,0,0,0-.86-2.44,3,3,0,0,0-3.2-.07c-14.57,7-26.36,17.71-39.1,27.42-13,9.92-26.2,19.78-40.78,27.32-5,2.56-13.67,4.77-17.55,8.68Z"/><path class="cls-2" d="M544.26,296.09c-3.54,8.67-21.38,15.92-27.67,19-32.64,16-67.71,30.45-94.22,56.53-3.66,3.61-9.34,9.6-14.88,5.92a8.3,8.3,0,0,1-2.45-3.12c-7.37-13.72-13.56-27.17-23.16-39.65-4.24-5.51-11.5-11.16-13.73-17.82-2.88-8.61,7.11-12.7,13.56-14.5,26.77-7.46,53.26-14.55,80.67-19.32,14.46-2.52,29-5.31,43.74-5.17,9.09.09,36.75,1.92,38.66,14.07A7.54,7.54,0,0,1,544.26,296.09Z"/><path class="cls-2" d="M396.38,477.27c-5.05,1.05-10.51-3.26-10.65-8.41-.13-4.83,3.71-9,8-11.13s9.19-2.93,13.74-4.56c2.62-.93,5.28-2.28,6.75-4.64s1.53-5.57.83-8.36c-2.75-11-15.8-17.57-26.88-15s-19.49,12.5-22.38,23.5-.95,22.79,3.09,33.42c1.68,4.42,3.77,8.78,7,12.23s7.77,5.91,12.49,5.78c3.62-.11,7-1.68,10.37-3s7-2.58,10.55-1.91,6.89,3.85,6.47,7.45c-.47,4.07-5.12,6.26-9.21,6.62s-8.42-.27-12.13,1.49c-6.17,2.94-7.64,12-3.83,17.66s11.32,8,18.1,7.2,13-4.23,18.63-8.07,11.27-8.42,15.32-14.1,6.54-12.69,5.83-19.63c-.74-7.25-4.85-13.74-9.61-19.26-3.92-4.55-8.54-8.76-14.22-10.67s-12.62-1.07-16.69,3.34a62.5,62.5,0,0,1-10.46,9.59A2.2,2.2,0,0,1,396.38,477.27Z"/><path class="cls-2" d="M518,448.44c-2.23-6-6.08-11.57-9.38-16.74a217.85,217.85,0,0,0-23.08-30.17c-3.78-4.12-7.45-8.48-11.6-12.25-4.6-4.18-10.11-6.93-16.45-6.53-7.27.46-14.59,3.92-20.53,8-8,5.51-13.74,13.47-14.23,23.46-.4,8.29,2.42,16.46,6.47,23.7,7.15,12.75,17.11,24.83,26.38,36.1,8.22,10,17.87,19.05,31.63,15.63S518,476.1,519.79,460.52A25.78,25.78,0,0,0,518,448.44Zm-28.56,5.65c-1,3.77-4.68,6.11-8.16,7.86a12.12,12.12,0,0,1-4.81,1.57c-4,.15-7.16-3.38-9.58-6.64a141.89,141.89,0,0,1-12.39-19.08,17.74,17.74,0,0,1-2.48-7.68c-.15-5.66,6.49-9.85,11.62-10.33,5.33-.48,9.89,3.66,13.28,7.81a83.06,83.06,0,0,1,10.79,17.21C489.1,447.73,490.31,451,489.47,454.09Z"/><path class="cls-2" d="M498.53,348.28c-12.13,16-7.64,35.24.9,51.69,6.68,12.88,13.24,26.61,23.36,37.36,12,12.79,25.82,15.14,41.48,7.47,11-5.41,28-15.61,29.17-29.35.69-7.86-4.5-15.5-11.64-18.53-9.53-4-14.4,2.38-19.95,9.13-3,3.67-7.62,7-12.14,5.6a12.81,12.81,0,0,1-4.53-3,75.89,75.89,0,0,1-17.82-24.16c-1.47-3.15-2.73-6.7-1.71-10s4.26-5.67,7.47-7.22,6.71-2.72,9.36-5.09c5.21-4.66,5.71-13.1,2.5-19.3a26.12,26.12,0,0,0-9.46-9.81C523.11,325.19,507.77,336.12,498.53,348.28Z"/><path class="cls-2" d="M550.14,319.59c-10.65,8.1,10.58,23.93,15.57,29.45C580,364.86,594,381.1,603.05,400.61c1.12,2.39,2.87,6,5.76,6.53a6.7,6.7,0,0,0,3.86-.81c8.07-3.6,17.89-10.34,18.08-20.19.24-11.84-11.29-25.73-17.61-35.08-7.31-10.8-15.53-20.88-23.79-31-3.58-4.37-7.52-9.39-13-11.39-5.82-2.11-10.23,1.17-15.22,3.84A81.56,81.56,0,0,0,550.14,319.59Z"/><path class="cls-2" d="M707.67,330.78c-11.71-12.31-24.14-24.18-38.06-34-7.26-5.13-15.42-9.44-24.34-10.64C634.65,284.7,624,288,613.91,291c-5.2,1.56-12.3,3.49-13.46,9.67-1.19,6.33,7.37,11.56,11,15.64A123.52,123.52,0,0,1,631.2,346.7a120.1,120.1,0,0,1,6.51,17.75c1.63,5.84,2,12.17,4.44,17.75a4.86,4.86,0,0,0,6.61,3.48c6.65-1.61,13.13-5.57,18.38-9.86a9,9,0,0,0,3.12-3.82c1.86-5.51-5.87-13.32-8.66-17.42a7.06,7.06,0,0,1-1.49-3.34c-.21-3.44,8.36-6.5,11-6.76,6.47-.63,6.53,7.22,9.49,10.94,3.38,4.24,9.71,3.83,14.35,2.14,6.58-2.41,18.4-8.81,18.32-17.14,0-3.5-2.56-6.43-5-9C708.1,331.22,707.89,331,707.67,330.78Zm-45.3-5.34a6.34,6.34,0,0,1-1.93,2.72,24.7,24.7,0,0,1-7.24,4.65,3.29,3.29,0,0,1-2.71.24,3.44,3.44,0,0,1-1.3-1.56c-2.46-4.47-4.6-8.93-7.55-13.1-1.59-2.23-6-7.54-1.29-9C646.64,307.4,664.6,317.71,662.37,325.44Z"/><path class="cls-2" d="M682.19,286.81c.71.58,1.33,1.1,1.79,1.54q7.14,7,13.92,14.29,9.52,10.28,18.32,21.21c4.83,6,10.09,14.55,19.2,10.06,22.52-11.08,42.7-25.79,63.89-39.07a8.48,8.48,0,0,0,3.26-3c1.38-2.66-1.1-4.68-3.09-5.89-7.84-4.8-17.58-11.15-27.21-10.16-8.31.85-14.28,7.69-21.25,11.55-9.61,5.32-16.45.68-23-7-7.26-8.58-16.16-12.06-27.42-11.23a79.72,79.72,0,0,0-15.45,3c-3,.82-8.79.78-10.16,4.2C673.51,280.07,678.81,284.08,682.19,286.81Z"/></g></g></svg>