<svg xmlns="http://www.w3.org/2000/svg" viewBox="0 0 649.69 458.23"><defs><style>.cls-1{fill:#0f82f4;}</style></defs><g id="Capa_2" data-name="Capa 2"><g id="Capa_1-2" data-name="Capa 1"><path class="cls-1" d="M181.86,369.29q5.71,7.59,11.8,14.91c4.06,4.88,8.51,10.72,7.06,16.9-.63,2.66-2.3,4.94-4,7.09a136.1,136.1,0,0,1-76.48,48c-15.12,3.36-32.56,3.53-44.27-6.61-1.11-1-2.23-2.2-2.13-3.67s1.29-2.46,2.4-3.33c8.77-6.86,18.92-13.37,22.61-23.88a4.51,4.51,0,0,0,.31-2.63c-.57-2.17-3.45-2.53-5.69-2.4C66,415.21,39.22,424,11.7,424.48c-3.8.07-8.19-.31-10.42-3.4-2.53-3.51-.84-8.39,1-12.28A209.7,209.7,0,0,1,79,323.11c2-1.26,4.2-4.13,2.29-5.55a3.6,3.6,0,0,0-1.74-.54,70.36,70.36,0,0,0-35,4.72c-1.57.64-3.28,1.35-4.91.89a5.42,5.42,0,0,1-3.2-3.24c-2.44-5.59.42-12,3.59-17.21a130.91,130.91,0,0,1,32.38-35.92A122.73,122.73,0,0,1,94,253.08c6-2.85,16.51-8.8,23.33-7.47,6.62,1.3,7.46,10.91,9,16C138.27,300.61,157.46,336.84,181.86,369.29Z"/><path class="cls-1" d="M256.81,360.39c.19.26.39.52.58.79,5.2,7,6.74,14.44,0,21.07-4.22,4.17-11,8.11-17,8.69-8.34.82-16.28-4-22.23-9.88-16.57-16.44-30.57-36.12-42.8-55.92-11.35-18.35-23.53-37.75-29.88-58.5-9-29.36-.25-61.6,25.44-79.84,3-2.13,6.53-3.18,9.63-.49,2.15,1.86,3.21,4.67,4,7.41,2.86,10,3.12,20.45,5.71,30.47s5.73,20.06,9.13,29.88a373.44,373.44,0,0,0,26.46,59.11A441.74,441.74,0,0,0,256.81,360.39Z"/><path class="cls-1" d="M305,240.5a40,40,0,0,0-3.9,2.2c-10.12,6.44-20.33,12.69-30.18,19.58S250.4,275.86,242.53,285c-3.88,4.52-13.23,18.91-.58,18.53,5.7-.18,9-3.54,14.88-1.28,4.9,1.9,8.75,6,12.61,9.41a74,74,0,0,1,15.85,18.82c4.18,7.4,6.17,16.47,3.69,24.79-1.1,3.68-7.52,14-1.57,16.4,1.89.77,4,.4,6,0a326.11,326.11,0,0,0,31.94-7.36c24.28-7.22,60.29-16.73,67.82-44.82a17,17,0,0,0,.16-9.32c-3.77-12.24-24.54-16.94-35.26-20.89-1.93-.71-27.78-10-28.07-8,.85-6,1.57-12.52,1-18.68-.71-8.91-4-22.15-14.14-24.23C312.84,237.63,308.75,238.69,305,240.5Zm-1.21,47.72c-.1.3-.2.61-.32.91A21.8,21.8,0,0,1,297,298.4a4,4,0,0,1-2,1c-3.25.37-12.41-10.21-11.67-13.32a5.88,5.88,0,0,1,1.44-2.37c2.2-2.53,13.81-14,17.78-10.5a3.53,3.53,0,0,1,.85,1.34A19.5,19.5,0,0,1,303.79,288.22Zm38.71,35.27c2.83,7.54-14.57,15.79-20,16.63a5.5,5.5,0,0,1-2.85-.14,6.06,6.06,0,0,1-2.51-2.48c-2-3-5.06-6.12-6.16-9.6s1.78-5.32,4.79-6.22c6-1.78,22-6.17,26.29.88A6.6,6.6,0,0,1,342.5,323.49Z"/><path class="cls-1" d="M397.08,218.2c-.56,2-1.43,3.71-2.92,4.43a6.31,6.31,0,0,1-3,.44c-7.08-.25-19.56-6.68-26.12-8.77-12.57-4-18.38.84-29.65,7.45a18.23,18.23,0,0,0-5.17,4.09c-8.78,10.84,11.27,17.28,18.5,19,15.18,3.6,32,3.12,44.85,13.31,10.16,8.07,25,28,22,41.72-.8,3.63-4.76,6.57-6.64,9.79s-3.64,6.69-3.67,10.41,2.2,7.72,5.83,8.53c2.19.49,4.45-.21,6.59-.9,18.1-5.9,36.68-12.05,51.32-24.22,4.79-4,9.45-10,7.34-15.9-1.12-3.09-3.87-5.24-6.46-7.26-6.69-5.2-13.15-10.68-19.53-16.25-8.65-7.54-19.73-13.73-20.5-26.39-.32-5.38.85-10.72,2.07-16,3.57-15.42,5-32.47-5.08-45.92-3.37-4.49-11.2-.7-16.33,2.72-4.67,3.11-5.54,5.39-7,8.56-3.65,7.9-3.11,15.45-5.1,23.92C398.05,212.73,397.81,215.67,397.08,218.2Z"/><path class="cls-1" d="M512.48,112a27.7,27.7,0,0,1,3.24-1.58c3.7-1.49,8-2,11.65-.37,5.38,2.33,8.07,8.28,10.09,13.78,3.29,9,5.92,19.49,1.11,27.79-3.25,5.61-9.23,8.94-14.61,12.57-17.63,11.93-10.84,27.51-1.74,43,7.36,12.51,23.59,29.75,13.33,44.7-8.37,12.2-21.62,23.7-36.86,25.36a9.16,9.16,0,0,1-5.65-.76c-2.52-1.47-3.41-4.75-3.18-7.66.3-3.89,2.09-7.62,2.18-11.52.12-5.1-1.26-10.69-2-15.73-1.85-12-4.5-23.92-7.24-35.77-1.46-6.31-5.38-19.73-14.45-12.61-5.47,4.29-7.5,13.33-16.42,10.35-4.58-1.53-7.81-5.61-10.33-9.74a70.78,70.78,0,0,1-6.28-13.18c-.77-2.18-1.45-4.5-1-6.77.66-3.5,3.71-6,6.55-8.12l64.79-49A66.8,66.8,0,0,1,512.48,112Z"/><path class="cls-1" d="M548,95.27c-4.86,5.11,0,15.27,1.28,21,3.06,13.78,5.49,27.83,5.77,42,.32,16.48-4.21,32.68-3.17,49.19a14.62,14.62,0,0,0,1,5c12,27.59,67.35-46.5,72-53.71a51.67,51.67,0,0,0,8.58-30.47,29.52,29.52,0,0,0-1.55-9.38,6.67,6.67,0,0,0-3-3.92c-2.63-1.26-5.75.7-7.41,3.11-5.49,8-10.07,16.47-16.13,24.11-4,5-12.3,17.59-19.58,17-4.54-.4-5.58-5.81-5.41-9.51.3-6.61,5-10.64,10.74-13,11.09-4.57,17.11-9.47,15.51-22.41-.22-1.75-.58-3.61-1.82-4.87a6.7,6.7,0,0,0-5.13-1.59c-5,.24-7.92,3.41-11.67,6.2-2.22,1.64-7.23,5.13-7.42,0a6,6,0,0,1,1.92-4c6-6.76,15-10.58,22.68-15.19a160.28,160.28,0,0,0,22.3-15.68c13.19-11.38,23.48-26.59,22.15-44.7a3.53,3.53,0,0,0-.85-2.44,3,3,0,0,0-3.21-.07c-14.57,7-26.35,17.72-39.1,27.43-13,9.91-26.19,19.77-40.77,27.31-5,2.56-13.68,4.78-17.56,8.68Z"/><path class="cls-1" d="M376.7,27.09C373.17,35.76,355.33,43,349,46.1c-32.64,16-67.71,30.45-94.22,56.53-3.66,3.61-9.34,9.61-14.88,5.92a8.3,8.3,0,0,1-2.45-3.12c-7.37-13.72-13.56-27.17-23.16-39.65-4.24-5.51-11.5-11.16-13.73-17.82-2.88-8.61,7.11-12.7,13.56-14.5,26.77-7.46,53.26-14.55,80.67-19.32,14.46-2.51,29-5.31,43.75-5.17,9.09.09,36.74,1.92,38.65,14.07A7.44,7.44,0,0,1,376.7,27.09Z"/><path class="cls-1" d="M228.82,208.27c-5,1-10.5-3.26-10.65-8.41-.13-4.83,3.71-9,8-11.13s9.19-2.93,13.74-4.55c2.63-.94,5.28-2.28,6.76-4.64s1.52-5.57.82-8.37c-2.75-11-15.79-17.57-26.87-15s-19.5,12.5-22.39,23.5-.95,22.8,3.09,33.42c1.69,4.42,3.78,8.78,7,12.23s7.77,5.91,12.49,5.78c3.63-.11,7-1.68,10.37-3.05s7-2.58,10.55-1.91,6.9,3.85,6.48,7.45c-.48,4.07-5.13,6.26-9.22,6.62s-8.42-.27-12.13,1.5c-6.17,2.93-7.64,12-3.83,17.66s11.32,8,18.11,7.2,13-4.24,18.62-8.08,11.28-8.42,15.32-14.1,6.55-12.69,5.83-19.63c-.74-7.25-4.85-13.74-9.61-19.26-3.92-4.54-8.54-8.76-14.22-10.67s-12.62-1.07-16.69,3.34A62.5,62.5,0,0,1,230,207.75,2.2,2.2,0,0,1,228.82,208.27Z"/><path class="cls-1" d="M350.48,179.44c-2.24-6-6.08-11.57-9.39-16.74A218.56,218.56,0,0,0,318,132.53c-3.79-4.12-7.46-8.48-11.6-12.25-4.61-4.18-10.12-6.93-16.46-6.52-7.27.46-14.59,3.92-20.53,8-8,5.51-13.74,13.47-14.23,23.46-.4,8.29,2.42,16.46,6.47,23.7,7.15,12.75,17.11,24.83,26.38,36.1,8.23,10,17.87,19.05,31.63,15.63s30.78-13.52,32.55-29.11A25.78,25.78,0,0,0,350.48,179.44Zm-28.57,5.65c-1,3.77-4.68,6.11-8.16,7.86a12,12,0,0,1-4.8,1.57c-4.05.16-7.17-3.38-9.58-6.63A142.25,142.25,0,0,1,287,168.81a17.82,17.82,0,0,1-2.48-7.69c-.15-5.66,6.49-9.85,11.62-10.32,5.33-.48,9.9,3.65,13.28,7.8a82.87,82.87,0,0,1,10.79,17.22C321.54,178.73,322.75,182,321.91,185.09Z"/><path class="cls-1" d="M331,79.28c-12.13,16-7.64,35.24.9,51.69,6.68,12.88,13.24,26.61,23.36,37.36,12,12.79,25.82,15.14,41.48,7.47,11.05-5.41,28-15.61,29.18-29.35.68-7.85-4.5-15.5-11.65-18.53-9.53-4-14.39,2.38-19.94,9.14-3,3.66-7.63,7-12.15,5.59a12.89,12.89,0,0,1-4.53-3,75.89,75.89,0,0,1-17.82-24.16c-1.47-3.14-2.73-6.7-1.71-10s4.26-5.67,7.47-7.22,6.71-2.71,9.37-5.09c5.2-4.66,5.7-13.1,2.49-19.3A26.12,26.12,0,0,0,368,64.07C355.55,56.2,340.21,67.12,331,79.28Z"/><path class="cls-1" d="M382.59,50.59C371.94,58.7,393.16,74.52,398.15,80c14.31,15.82,28.28,32.06,37.34,51.57,1.12,2.4,2.87,6,5.76,6.53a6.75,6.75,0,0,0,3.86-.8c8.07-3.61,17.89-10.34,18.08-20.19.24-11.85-11.29-25.74-17.61-35.09-7.31-10.8-15.53-20.87-23.79-31-3.58-4.37-7.51-9.39-13-11.39-5.81-2.11-10.23,1.17-15.22,3.84A80.83,80.83,0,0,0,382.59,50.59Z"/><path class="cls-1" d="M540.12,61.78c-11.72-12.3-24.15-24.18-38.07-34-7.25-5.13-15.42-9.44-24.34-10.63C467.09,15.7,456.41,19,446.35,22c-5.19,1.56-12.3,3.49-13.46,9.67s7.37,11.56,11,15.64A123.23,123.23,0,0,1,463.64,77.7a120.51,120.51,0,0,1,6.51,17.75c1.63,5.84,2,12.17,4.45,17.75a6.09,6.09,0,0,0,2.93,3.5,6,6,0,0,0,3.68,0c6.64-1.61,13.12-5.57,18.37-9.86A9,9,0,0,0,502.7,103c1.86-5.51-5.87-13.32-8.66-17.42a7,7,0,0,1-1.48-3.34c-.22-3.44,8.36-6.5,11-6.76,6.47-.63,6.53,7.22,9.49,10.94,3.38,4.24,9.71,3.83,14.35,2.14,6.58-2.41,18.4-8.81,18.32-17.13,0-3.51-2.56-6.44-5-9Zm-45.31-5.33a6.17,6.17,0,0,1-1.93,2.71,24.7,24.7,0,0,1-7.24,4.65,3.33,3.33,0,0,1-2.71.25,3.53,3.53,0,0,1-1.3-1.57c-2.45-4.47-4.59-8.93-7.55-13.1-1.59-2.23-6-7.54-1.28-9C479.08,38.4,497,48.72,494.81,56.45Z"/><path class="cls-1" d="M514.63,17.82c.71.57,1.33,1.09,1.79,1.54q7.14,7,13.92,14.28,9.54,10.28,18.32,21.21c4.83,6,10.09,14.55,19.2,10.07,22.52-11.09,42.7-25.8,63.89-39.08a8.41,8.41,0,0,0,3.26-3c1.38-2.66-1.1-4.67-3.09-5.89-7.83-4.79-17.58-11.15-27.2-10.16-8.32.85-14.29,7.7-21.25,11.55-9.61,5.32-16.45.69-23-7C553.24,2.77,544.34-.71,533.08.12a79.47,79.47,0,0,0-15.44,3c-3,.82-8.8.78-10.17,4.2C506,11.08,511.25,15.08,514.63,17.82Z"/></g></g></svg>